<svg width="21" height="21" viewBox="0 0 21 21" fill="none" xmlns="http://www.w3.org/2000/svg">
<path d="M20 8.17002C19.9368 7.98711 19.822 7.82645 19.6693 7.70753C19.5167 7.5886 19.3328 7.51652 19.14 7.50002L13.45 6.67002L10.9 1.50002C10.8181 1.33095 10.6902 1.18837 10.5311 1.0886C10.3719 0.988828 10.1878 0.935913 9.99998 0.935913C9.81212 0.935913 9.62806 0.988828 9.46889 1.0886C9.30971 1.18837 9.18186 1.33095 9.09998 1.50002L6.54998 6.66002L0.859977 7.50002C0.6749 7.52633 0.500902 7.60399 0.357728 7.72418C0.214554 7.84438 0.107937 8.0023 0.0499774 8.18002C-0.00307759 8.3537 -0.00783865 8.53854 0.0362052 8.71472C0.080249 8.89089 0.171435 9.05175 0.299977 9.18002L4.42998 13.18L3.42998 18.86C3.39428 19.0475 3.41297 19.2413 3.48385 19.4185C3.55473 19.5957 3.67483 19.7489 3.82998 19.86C3.98119 19.9681 4.15955 20.0319 4.34503 20.0443C4.5305 20.0567 4.71575 20.0171 4.87998 19.93L9.99998 17.26L15.1 19.94C15.2403 20.0192 15.3988 20.0606 15.56 20.06C15.7718 20.0608 15.9784 19.9942 16.15 19.87C16.3051 19.7589 16.4252 19.6057 16.4961 19.4285C16.567 19.2513 16.5857 19.0575 16.55 18.87L15.55 13.19L19.68 9.19002C19.8244 9.0677 19.9311 8.90693 19.9877 8.72637C20.0444 8.54582 20.0486 8.3529 20 8.17002ZM13.85 12.17C13.7327 12.2835 13.645 12.4239 13.5944 12.579C13.5439 12.7341 13.532 12.8993 13.56 13.06L14.28 17.25L10.52 15.25C10.3753 15.173 10.2139 15.1327 10.05 15.1327C9.88606 15.1327 9.72466 15.173 9.57998 15.25L5.81998 17.25L6.53998 13.06C6.56791 12.8993 6.55609 12.7341 6.50554 12.579C6.45499 12.4239 6.36725 12.2835 6.24998 12.17L3.24998 9.17002L7.45998 8.56002C7.62198 8.53749 7.77598 8.47556 7.90848 8.37967C8.04098 8.28379 8.14794 8.15686 8.21998 8.01002L9.99998 4.20002L11.88 8.02002C11.952 8.16686 12.059 8.29379 12.1915 8.38968C12.324 8.48556 12.478 8.54749 12.64 8.57002L16.85 9.18002L13.85 12.17Z" fill="#ECD68A"/>
</svg>
