<svg width="28" height="31" viewBox="0 0 28 31" fill="none" xmlns="http://www.w3.org/2000/svg">
<path d="M14 24.8333C14.2637 24.8333 14.5215 24.7551 14.7408 24.6085C14.96 24.462 15.1309 24.2538 15.2319 24.0102C15.3328 23.7665 15.3592 23.4984 15.3077 23.2398C15.2563 22.9812 15.1293 22.7436 14.9428 22.5571C14.7564 22.3706 14.5188 22.2437 14.2601 22.1922C14.0015 22.1408 13.7334 22.1672 13.4898 22.2681C13.2461 22.369 13.0379 22.5399 12.8914 22.7592C12.7449 22.9784 12.6667 23.2362 12.6667 23.4999C12.6667 23.8535 12.8072 24.1927 13.0572 24.4427C13.3073 24.6928 13.6464 24.8333 14 24.8333ZM20.6667 24.8333C20.9304 24.8333 21.1882 24.7551 21.4074 24.6085C21.6267 24.462 21.7976 24.2538 21.8985 24.0102C21.9994 23.7665 22.0258 23.4984 21.9744 23.2398C21.923 22.9812 21.796 22.7436 21.6095 22.5571C21.423 22.3706 21.1855 22.2437 20.9268 22.1922C20.6682 22.1408 20.4001 22.1672 20.1564 22.2681C19.9128 22.369 19.7046 22.5399 19.5581 22.7592C19.4116 22.9784 19.3334 23.2362 19.3334 23.4999C19.3334 23.8535 19.4738 24.1927 19.7239 24.4427C19.9739 24.6928 20.3131 24.8333 20.6667 24.8333ZM20.6667 19.4999C20.9304 19.4999 21.1882 19.4217 21.4074 19.2752C21.6267 19.1287 21.7976 18.9205 21.8985 18.6768C21.9994 18.4332 22.0258 18.1651 21.9744 17.9065C21.923 17.6478 21.796 17.4102 21.6095 17.2238C21.423 17.0373 21.1855 16.9103 20.9268 16.8589C20.6682 16.8074 20.4001 16.8338 20.1564 16.9347C19.9128 17.0357 19.7046 17.2066 19.5581 17.4258C19.4116 17.6451 19.3334 17.9029 19.3334 18.1666C19.3334 18.5202 19.4738 18.8593 19.7239 19.1094C19.9739 19.3594 20.3131 19.4999 20.6667 19.4999ZM14 19.4999C14.2637 19.4999 14.5215 19.4217 14.7408 19.2752C14.96 19.1287 15.1309 18.9205 15.2319 18.6768C15.3328 18.4332 15.3592 18.1651 15.3077 17.9065C15.2563 17.6478 15.1293 17.4102 14.9428 17.2238C14.7564 17.0373 14.5188 16.9103 14.2601 16.8589C14.0015 16.8074 13.7334 16.8338 13.4898 16.9347C13.2461 17.0357 13.0379 17.2066 12.8914 17.4258C12.7449 17.6451 12.6667 17.9029 12.6667 18.1666C12.6667 18.5202 12.8072 18.8593 13.0572 19.1094C13.3073 19.3594 13.6464 19.4999 14 19.4999ZM23.3334 3.49992H22V2.16659C22 1.81296 21.8595 1.47382 21.6095 1.22378C21.3594 0.973728 21.0203 0.833252 20.6667 0.833252C20.3131 0.833252 19.9739 0.973728 19.7239 1.22378C19.4738 1.47382 19.3334 1.81296 19.3334 2.16659V3.49992H8.66669V2.16659C8.66669 1.81296 8.52621 1.47382 8.27616 1.22378C8.02611 0.973728 7.68698 0.833252 7.33335 0.833252C6.97973 0.833252 6.64059 0.973728 6.39054 1.22378C6.1405 1.47382 6.00002 1.81296 6.00002 2.16659V3.49992H4.66669C3.60582 3.49992 2.58841 3.92135 1.83826 4.67149C1.08811 5.42164 0.666687 6.43905 0.666687 7.49992V26.1666C0.666687 27.2274 1.08811 28.2449 1.83826 28.995C2.58841 29.7452 3.60582 30.1666 4.66669 30.1666H23.3334C24.3942 30.1666 25.4116 29.7452 26.1618 28.995C26.9119 28.2449 27.3334 27.2274 27.3334 26.1666V7.49992C27.3334 6.43905 26.9119 5.42164 26.1618 4.67149C25.4116 3.92135 24.3942 3.49992 23.3334 3.49992ZM24.6667 26.1666C24.6667 26.5202 24.5262 26.8593 24.2762 27.1094C24.0261 27.3594 23.687 27.4999 23.3334 27.4999H4.66669C4.31307 27.4999 3.97393 27.3594 3.72388 27.1094C3.47383 26.8593 3.33335 26.5202 3.33335 26.1666V14.1666H24.6667V26.1666ZM24.6667 11.4999H3.33335V7.49992C3.33335 7.1463 3.47383 6.80716 3.72388 6.55711C3.97393 6.30706 4.31307 6.16658 4.66669 6.16658H6.00002V7.49992C6.00002 7.85354 6.1405 8.19268 6.39054 8.44273C6.64059 8.69278 6.97973 8.83325 7.33335 8.83325C7.68698 8.83325 8.02611 8.69278 8.27616 8.44273C8.52621 8.19268 8.66669 7.85354 8.66669 7.49992V6.16658H19.3334V7.49992C19.3334 7.85354 19.4738 8.19268 19.7239 8.44273C19.9739 8.69278 20.3131 8.83325 20.6667 8.83325C21.0203 8.83325 21.3594 8.69278 21.6095 8.44273C21.8595 8.19268 22 7.85354 22 7.49992V6.16658H23.3334C23.687 6.16658 24.0261 6.30706 24.2762 6.55711C24.5262 6.80716 24.6667 7.1463 24.6667 7.49992V11.4999ZM7.33335 19.4999C7.59706 19.4999 7.85485 19.4217 8.07411 19.2752C8.29338 19.1287 8.46428 18.9205 8.56519 18.6768C8.66611 18.4332 8.69251 18.1651 8.64107 17.9065C8.58962 17.6478 8.46263 17.4102 8.27616 17.2238C8.08969 17.0373 7.85212 16.9103 7.59347 16.8589C7.33483 16.8074 7.06674 16.8338 6.82311 16.9347C6.57947 17.0357 6.37124 17.2066 6.22473 17.4258C6.07822 17.6451 6.00002 17.9029 6.00002 18.1666C6.00002 18.5202 6.1405 18.8593 6.39054 19.1094C6.64059 19.3594 6.97973 19.4999 7.33335 19.4999ZM7.33335 24.8333C7.59706 24.8333 7.85485 24.7551 8.07411 24.6085C8.29338 24.462 8.46428 24.2538 8.56519 24.0102C8.66611 23.7665 8.69251 23.4984 8.64107 23.2398C8.58962 22.9812 8.46263 22.7436 8.27616 22.5571C8.08969 22.3706 7.85212 22.2437 7.59347 22.1922C7.33483 22.1408 7.06674 22.1672 6.82311 22.2681C6.57947 22.369 6.37124 22.5399 6.22473 22.7592C6.07822 22.9784 6.00002 23.2362 6.00002 23.4999C6.00002 23.8535 6.1405 24.1927 6.39054 24.4427C6.64059 24.6928 6.97973 24.8333 7.33335 24.8333Z" fill="#857369"/>
</svg>
