<svg width="24" height="27" viewBox="0 0 24 27" fill="none" xmlns="http://www.w3.org/2000/svg">
<path d="M20 3.47338C17.8783 1.35164 15.0006 0.159668 12 0.159668C8.9994 0.159668 6.12172 1.35164 3.99999 3.47338C1.87826 5.59511 0.686279 8.4728 0.686279 11.4734C0.686279 14.474 1.87826 17.3516 3.99999 19.4734L11.0267 26.5134C11.1506 26.6383 11.2981 26.7375 11.4606 26.8052C11.623 26.8729 11.7973 26.9078 11.9733 26.9078C12.1493 26.9078 12.3236 26.8729 12.4861 26.8052C12.6486 26.7375 12.796 26.6383 12.92 26.5134L20 19.4067C22.1129 17.2938 23.2998 14.4281 23.2998 11.44C23.2998 8.45197 22.1129 5.58628 20 3.47338ZM18.0933 17.5L12 23.62L5.90665 17.5C4.70285 16.2951 3.88329 14.7604 3.55158 13.0898C3.21987 11.4192 3.39091 9.68771 4.04306 8.11428C4.69521 6.54086 5.79921 5.19611 7.21549 4.25001C8.63178 3.30392 10.2968 2.79895 12 2.79895C13.7032 2.79895 15.3682 3.30392 16.7845 4.25001C18.2008 5.19611 19.3048 6.54086 19.9569 8.11428C20.6091 9.68771 20.7801 11.4192 20.4484 13.0898C20.1167 14.7604 19.2971 16.2951 18.0933 17.5ZM7.99999 7.38004C6.92361 8.45974 6.31918 9.92213 6.31918 11.4467C6.31918 12.9713 6.92361 14.4337 7.99999 15.5134C8.79967 16.3144 9.8181 16.8615 10.9275 17.0859C12.0369 17.3103 13.1879 17.2022 14.2361 16.7749C15.2842 16.3477 16.1829 15.6204 16.8193 14.6844C17.4557 13.7483 17.8015 12.6452 17.8133 11.5134C17.8193 10.7576 17.6737 10.0084 17.3852 9.30989C17.0966 8.6114 16.671 7.97785 16.1333 7.44671C15.6049 6.90615 14.9748 6.47543 14.2792 6.17933C13.5837 5.88323 12.8364 5.72761 12.0805 5.72141C11.3246 5.71522 10.5749 5.85857 9.87462 6.14323C9.17431 6.42788 8.53721 6.84822 7.99999 7.38004ZM14.2533 13.62C13.748 14.133 13.0803 14.4546 12.3642 14.5297C11.648 14.6048 10.9281 14.4289 10.3273 14.0319C9.72659 13.635 9.28238 13.0417 9.07066 12.3535C8.85894 11.6653 8.89285 10.9249 9.1666 10.2589C9.44034 9.59294 9.93692 9.04273 10.5714 8.70236C11.2059 8.36199 11.939 8.25259 12.6452 8.39287C13.3515 8.53314 13.9871 8.91439 14.4433 9.47142C14.8996 10.0284 15.1482 10.7267 15.1467 11.4467C15.1273 12.2697 14.782 13.0514 14.1867 13.62H14.2533Z" fill="#857369"/>
</svg>
