<svg width="90" height="89" viewBox="0 0 90 89" fill="none" xmlns="http://www.w3.org/2000/svg">
<g opacity="0.1">
<path opacity="0.1" d="M88.993 85.9165V87.9931H86.9164" stroke="#20263C" stroke-miterlimit="10"/>
<path opacity="0.1" d="M82.9224 87.9932H5.07014" stroke="#20263C" stroke-miterlimit="10" stroke-dasharray="5.77 5.77"/>
<path opacity="0.1" d="M3.07659 87.9931H1V85.9165" stroke="#20263C" stroke-miterlimit="10"/>
<path opacity="0.1" d="M1 81.9222V4.06982" stroke="#20263C" stroke-miterlimit="10" stroke-dasharray="5.77 5.77"/>
<path opacity="0.1" d="M1 2.07661V0H3.07659" stroke="#20263C" stroke-miterlimit="10"/>
<path opacity="0.1" d="M7.06374 0H84.9229" stroke="#20263C" stroke-miterlimit="10" stroke-dasharray="5.77 5.77"/>
<path opacity="0.1" d="M86.9164 0H88.993V2.07661" stroke="#20263C" stroke-miterlimit="10"/>
<path opacity="0.1" d="M88.9931 6.06348V83.9227" stroke="#20263C" stroke-miterlimit="10" stroke-dasharray="5.77 5.77"/>
</g>
<path d="M44.6089 55.6102C43.2615 55.6162 41.9319 55.2898 40.7292 54.6578C39.5266 54.0257 38.485 53.1062 37.69 51.9744L32.1492 55.2851C32.3601 55.5379 32.6097 55.7527 32.888 55.9206L42.7478 61.8325C43.324 62.1387 43.9618 62.2984 44.6089 62.2984C45.256 62.2984 45.8938 62.1387 46.47 61.8325L56.3298 55.9206C56.6081 55.7527 56.8577 55.5379 57.0686 55.2851L51.542 51.9153C50.7517 53.06 49.7107 53.9922 48.5049 54.6348C47.2992 55.2774 45.9636 55.6118 44.6089 55.6102Z" fill="#414042"/>
<path d="M35.9337 46.6887C35.9387 44.5868 36.7557 42.5603 38.2283 40.9967C39.701 39.4331 41.7262 38.4419 43.9167 38.2127V31.8416C43.5843 31.9075 43.2646 32.0218 42.9688 32.1806L32.6902 37.8313C32.1315 38.1878 31.6669 38.6627 31.3329 39.2191C30.9989 39.7755 30.8044 40.398 30.7648 41.038V52.3393C30.7694 52.6654 30.8242 52.9891 30.9277 53.2999L36.7039 50.1214C36.1988 49.041 35.9365 47.8716 35.9337 46.6887Z" fill="#414042"/>
<path d="M56.629 37.8273L46.8913 32.1804C46.6111 32.0217 46.3082 31.9074 45.9933 31.8416V38.1943C47.3162 38.3452 48.5854 38.8063 49.6988 39.5409C50.8121 40.2754 51.7385 41.2627 52.4033 42.4232C53.0681 43.5838 53.4527 44.8852 53.5262 46.2227C53.5997 47.5601 53.36 48.8962 52.8265 50.1235L58.2987 53.2999C58.3967 52.9892 58.4487 52.6658 58.453 52.3399V41.0461C58.4176 40.4041 58.2343 39.7791 57.9178 39.2205C57.6012 38.6619 57.16 38.185 56.629 37.8273Z" fill="#414042"/>
<path d="M63.7218 32.1674L47.6467 22.8705C46.704 22.397 45.6637 22.1504 44.6089 22.1504C43.5542 22.1504 42.5141 22.397 41.5713 22.8705L25.4961 32.1674C24.6137 32.743 23.8791 33.5183 23.3513 34.4307C22.8237 35.3431 22.5178 36.367 22.4584 37.4195V56.0132C22.5167 57.068 22.822 58.0944 23.3497 59.0093C23.8773 59.9242 24.6126 60.702 25.4961 61.28L41.5713 70.577C42.5141 71.0505 43.5542 71.2969 44.6089 71.2969C45.6637 71.2969 46.704 71.0505 47.6467 70.577L63.7218 61.28C64.6053 60.702 65.3405 59.9242 65.8682 59.0093C66.3959 58.0944 66.7012 57.068 66.7595 56.0132V37.4195C66.7001 36.367 66.3942 35.3431 65.8666 34.4307C65.3388 33.5183 64.6042 32.743 63.7218 32.1674ZM61.6579 53.8745C61.6107 54.6848 61.3744 55.4728 60.968 56.1752C60.5617 56.8776 59.9965 57.4748 59.3178 57.9192L46.9344 65.0773C46.211 65.443 45.412 65.6335 44.6017 65.6335C43.7913 65.6335 42.9922 65.443 42.2689 65.0773L29.9001 57.9192C29.2214 57.4748 28.6562 56.8776 28.2499 56.1752C27.8435 55.4728 27.6072 54.6848 27.56 53.8745V39.5728C27.6072 38.7625 27.8435 37.9745 28.2499 37.2722C28.6562 36.5697 29.2214 35.9724 29.9001 35.5281L42.2543 28.3701C42.9777 28.0044 43.7767 27.8138 44.5871 27.8138C45.3975 27.8138 46.1966 28.0044 46.9199 28.3701L59.3033 35.5281C59.9846 35.9708 60.5527 36.5674 60.9617 37.2699C61.3706 37.9724 61.6091 38.7612 61.6579 39.5728V53.8745Z" fill="#414042"/>
<path d="M38.3791 46.7238C38.3791 47.8875 38.7444 49.0251 39.429 49.9926C40.1135 50.9603 41.0865 51.7143 42.2249 52.1597C43.3632 52.605 44.6159 52.7215 45.8244 52.4945C47.0328 52.2675 48.1428 51.7071 49.0141 50.8843C49.8853 50.0614 50.4787 49.013 50.7191 47.8717C50.9594 46.7303 50.8361 45.5474 50.3645 44.4722C49.893 43.3971 49.0946 42.4782 48.0701 41.8317C47.0456 41.1852 45.8411 40.8401 44.6089 40.8401C42.9567 40.8401 41.3721 41.46 40.2038 42.5634C39.0354 43.6668 38.3791 45.1634 38.3791 46.7238Z" fill="#414042"/>
</svg>
