<svg width="21" height="21" viewBox="0 0 21 21" fill="none" xmlns="http://www.w3.org/2000/svg">
<path d="M20 8.17002C19.9368 7.98711 19.822 7.82645 19.6693 7.70753C19.5167 7.5886 19.3328 7.51652 19.14 7.50002L13.45 6.67002L10.9 1.50002C10.8181 1.33095 10.6903 1.18837 10.5311 1.0886C10.3719 0.988828 10.1879 0.935913 10 0.935913C9.81214 0.935913 9.62809 0.988828 9.46891 1.0886C9.30974 1.18837 9.18188 1.33095 9.1 1.50002L6.55 6.66002L0.86 7.50002C0.674923 7.52633 0.500924 7.60399 0.357751 7.72418C0.214577 7.84438 0.10796 8.0023 0.0500003 8.18002C-0.0030547 8.3537 -0.00781576 8.53854 0.0362281 8.71472C0.0802719 8.89089 0.171458 9.05175 0.3 9.18002L4.43 13.18L3.43 18.86C3.3943 19.0475 3.41299 19.2413 3.48387 19.4185C3.55475 19.5957 3.67485 19.7489 3.83 19.86C3.98122 19.9681 4.15957 20.0319 4.34505 20.0443C4.53052 20.0567 4.71577 20.0171 4.88 19.93L10 17.26L15.1 19.94C15.2403 20.0192 15.3989 20.0606 15.56 20.06C15.7718 20.0608 15.9784 19.9942 16.15 19.87C16.3051 19.7589 16.4252 19.6057 16.4961 19.4285C16.567 19.2513 16.5857 19.0575 16.55 18.87L15.55 13.19L19.68 9.19002C19.8244 9.0677 19.9311 8.90693 19.9877 8.72637C20.0444 8.54582 20.0486 8.3529 20 8.17002ZM13.85 12.17C13.7327 12.2835 13.645 12.4239 13.5944 12.579C13.5439 12.7341 13.5321 12.8993 13.56 13.06L14.28 17.25L10.52 15.25C10.3753 15.173 10.2139 15.1327 10.05 15.1327C9.88608 15.1327 9.72468 15.173 9.58 15.25L5.82 17.25L6.54 13.06C6.56794 12.8993 6.55611 12.7341 6.50557 12.579C6.45502 12.4239 6.36728 12.2835 6.25 12.17L3.25 9.17002L7.46 8.56002C7.622 8.53749 7.776 8.47556 7.9085 8.37967C8.041 8.28379 8.14796 8.15686 8.22 8.01002L10 4.20002L11.88 8.02002C11.952 8.16686 12.059 8.29379 12.1915 8.38968C12.324 8.48556 12.478 8.54749 12.64 8.57002L16.85 9.18002L13.85 12.17Z" fill="#857369"/>
</svg>
