<svg width="69" height="36" viewBox="0 0 69 36" fill="none" xmlns="http://www.w3.org/2000/svg">
<path d="M0 30.8571V16.1345L5.26594 10.8908H19.6322L24.9493 16.1345V25.6639H6.74858V28.8908L8.3846 30.5546H16.7181L18.2518 28.9916V27.6807H24.8982V30.958L19.8367 36H5.16369L0 30.8571ZM18.2007 21.0252V18.1008L16.4624 16.3361H8.48685L6.74858 18.1008V21.0252H18.2007Z" fill="#382A17"/>
<path d="M30.3179 30.5546V0H37.0665V14.3697L40.7986 10.8908H50.1035L55.3694 16.1345V30.7563L50.1035 36H35.7883L30.3179 30.5546ZM46.6781 30.3529L48.6209 28.3866V18.5042L46.6781 16.5378H41.6678L37.0665 21.0756V28.3866L39.0092 30.3529H46.6781Z" fill="#382A17"/>
<path d="M60.7177 5.64706V2.42017L63.0694 0.100842H66.6482L69 2.42017V5.64706L66.6482 7.96639H63.0694L60.7177 5.64706ZM61.4845 10.8908H68.2331V36H61.4845V10.8908Z" fill="#382A17"/>
</svg>
